<svg width="135" height="22" viewBox="0 0 135 22" fill="none" xmlns="http://www.w3.org/2000/svg">
<path d="M4.488 17H1.896V7.232H0.144V5.072H1.896C1.944 2.384 3.552 0.92 6.576 0.92H7.536V2.984H6.096C4.944 2.984 4.416 3.416 4.416 4.424V5.072H7.536V7.232H4.488V17ZM11.616 17H9.024V0.92H11.616V17ZM18.6026 17.24C15.4826 17.24 14.0906 15.152 14.0906 12.44V5.072H16.6826V11.984C16.6826 14.12 17.4986 15.008 19.5626 15.008C21.5546 15.008 22.6826 14.144 22.6826 11.792V5.072H25.2746V17H22.8746V14.624H22.7786C22.2026 15.992 20.9306 17.24 18.6026 17.24ZM33.0838 17.24C29.1478 17.24 27.2998 14.744 27.2998 11.024C27.2998 7.328 29.5078 4.832 33.0598 4.832C36.2758 4.832 38.5318 6.752 38.5318 10.016C38.5318 10.64 38.4598 11.288 38.3878 11.648H29.7238C29.8198 13.832 30.6118 14.936 33.1078 14.936C35.0998 14.936 35.8678 14.264 35.8678 13.184V12.992H38.4358V13.208C38.4358 15.656 36.2998 17.24 33.0838 17.24ZM33.0118 7.016C30.7558 7.016 29.8918 8.072 29.7478 9.92H36.0598C36.1558 7.88 35.0518 7.016 33.0118 7.016ZM43.1921 17H40.6001V5.072H42.9761V7.304H43.0721C43.6241 6.032 44.8961 4.832 47.2241 4.832C50.3201 4.832 51.7121 6.8 51.7121 9.512V17H49.1201V10.088C49.1201 7.952 48.4481 7.064 46.2641 7.064C44.1521 7.064 43.1921 7.88 43.1921 10.112V17ZM59.0453 17C56.3813 17 54.9893 16.016 54.9893 13.328V7.232H52.9973V5.072H55.0373L55.5893 2.12H57.5813V5.072H61.1813V7.232H57.5813V13.208C57.5813 14.456 58.1093 14.672 59.7173 14.672H61.1813V16.784C60.6773 16.904 59.8613 17 59.0453 17ZM67.788 17.24C64.308 17.24 62.484 15.872 62.484 12.968V12.92H64.98V13.352C64.98 14.648 65.556 15.128 67.836 15.128C69.756 15.128 70.116 14.696 70.116 13.808C70.116 12.848 69.54 12.56 67.788 12.248L65.94 11.936C63.804 11.552 62.46 10.592 62.46 8.432C62.46 6.272 64.236 4.832 67.356 4.832C70.164 4.832 72.276 6.224 72.276 8.936V9.152H69.804V8.864C69.804 7.76 69.42 6.968 67.284 6.968C65.388 6.968 64.932 7.472 64.932 8.384C64.932 9.296 65.364 9.56 67.044 9.896L69.06 10.28C71.364 10.736 72.564 11.768 72.564 13.736C72.564 15.944 70.812 17.24 67.788 17.24ZM77.1531 17H74.5611V0.92H77.1531V7.064H77.2491C77.8011 5.984 79.0731 4.832 81.2331 4.832C84.3531 4.832 85.6731 6.872 85.6731 9.488V17H83.0811V10.088C83.0811 7.952 82.4091 7.064 80.2251 7.064C78.1131 7.064 77.1531 7.88 77.1531 10.136V17ZM93.6503 17.24C89.9783 17.24 87.6982 14.744 87.6982 11.024C87.6982 7.328 89.9783 4.832 93.6503 4.832C97.2983 4.832 99.5063 7.328 99.5063 11.024C99.5063 14.744 97.2983 17.24 93.6503 17.24ZM93.6503 14.936C96.1463 14.936 97.0103 13.712 97.0103 11.024C97.0103 8.36 96.1463 7.136 93.6503 7.136C91.1303 7.136 90.2423 8.36 90.2423 11.024C90.2423 13.712 91.1303 14.936 93.6503 14.936ZM103.916 21.152H101.348V5.072H103.7V7.04H103.82C104.372 5.648 105.74 4.832 107.804 4.832C111.164 4.832 113.012 7.256 113.012 11.048C113.012 14.816 111.212 17.24 107.972 17.24C105.836 17.24 104.516 16.256 103.988 15.152H103.916V21.152ZM103.916 12.104C103.916 14.096 105.068 15.032 107.18 15.032C109.46 15.032 110.42 13.976 110.42 11.048C110.42 8.096 109.484 7.04 107.18 7.04C105.068 7.04 103.916 7.976 103.916 9.968V12.104ZM117.704 17H114.416V13.28H117.704V17ZM123.013 17.24C120.877 17.24 119.221 16.136 119.221 14.048C119.221 12.08 120.661 11.048 123.205 10.688L127.381 10.064V9.416C127.381 7.64 126.565 7.112 124.693 7.112C122.797 7.112 122.053 7.712 122.053 9.296V9.656H119.557V9.416C119.557 6.752 121.645 4.832 124.837 4.832C128.173 4.832 129.853 6.848 129.853 9.752V17H127.453V15.128H127.333C126.637 16.256 125.269 17.24 123.013 17.24ZM121.741 13.856C121.741 14.792 122.341 15.176 123.853 15.176C125.533 15.176 127.381 14.504 127.381 12.104V11.888L123.589 12.464C122.221 12.656 121.741 12.968 121.741 13.856ZM134.759 3.56H132.191L132.167 0.92H134.759V3.56ZM134.783 17H132.191V5H134.783V17Z" fill="url(#paint0_linear_2365_14112)"/>
<defs>
<linearGradient id="paint0_linear_2365_14112" x1="0" y1="-7" x2="156.5" y2="32" gradientUnits="userSpaceOnUse">
<stop stop-color="#FEF9FF"/>
<stop offset="0.5" stop-color="#C575F9"/>
<stop offset="1" stop-color="#733AF8"/>
</linearGradient>
</defs>
</svg>
