<svg width="360" height="360" viewBox="0 0 360 360" fill="none" xmlns="http://www.w3.org/2000/svg">
<g style="mix-blend-mode:screen" filter="url(#filter0_f_9_6)">
<circle cx="180" cy="180" r="30" fill="url(#paint0_linear_9_6)"/>
</g>
<g style="mix-blend-mode:screen" filter="url(#filter1_f_9_6)">
<circle cx="180" cy="180" r="30" fill="url(#paint1_linear_9_6)"/>
</g>
<g style="mix-blend-mode:screen" filter="url(#filter2_f_9_6)">
<circle cx="180" cy="180" r="30" fill="url(#paint2_linear_9_6)"/>
</g>
<g style="mix-blend-mode:screen" filter="url(#filter3_f_9_6)">
<circle cx="180" cy="180" r="30" fill="url(#paint3_linear_9_6)"/>
</g>
<g filter="url(#filter4_ii_9_6)">
<circle cx="180" cy="180" r="30" fill="url(#paint4_linear_9_6)"/>
</g>
<path d="M180 167.5L181.627 174.007C181.944 175.277 182.103 175.912 182.434 176.429C182.726 176.886 183.114 177.274 183.571 177.566C184.088 177.897 184.723 178.056 185.993 178.373L192.5 180L185.993 181.627C184.723 181.944 184.088 182.103 183.571 182.434C183.114 182.726 182.726 183.114 182.434 183.571C182.103 184.088 181.944 184.723 181.627 185.993L180 192.5L178.373 185.993C178.056 184.723 177.897 184.088 177.566 183.571C177.274 183.114 176.886 182.726 176.429 182.434C175.912 182.103 175.277 181.944 174.007 181.627L167.5 180L174.007 178.373C175.277 178.056 175.912 177.897 176.429 177.566C176.886 177.274 177.274 176.886 177.566 176.429C177.897 175.912 178.056 175.277 178.373 174.007L180 167.5Z" fill="#FEF9FF"/>
<path d="M180 167.5L181.627 174.007C181.944 175.277 182.103 175.912 182.434 176.429C182.726 176.886 183.114 177.274 183.571 177.566C184.088 177.897 184.723 178.056 185.993 178.373L192.5 180L185.993 181.627C184.723 181.944 184.088 182.103 183.571 182.434C183.114 182.726 182.726 183.114 182.434 183.571C182.103 184.088 181.944 184.723 181.627 185.993L180 192.5L178.373 185.993C178.056 184.723 177.897 184.088 177.566 183.571C177.274 183.114 176.886 182.726 176.429 182.434C175.912 182.103 175.277 181.944 174.007 181.627L167.5 180L174.007 178.373C175.277 178.056 175.912 177.897 176.429 177.566C176.886 177.274 177.274 176.886 177.566 176.429C177.897 175.912 178.056 175.277 178.373 174.007L180 167.5Z" fill="#FEF9FF"/>
<defs>
<filter id="filter0_f_9_6" x="-1.52588e-05" y="-1.52588e-05" width="360" height="360" filterUnits="userSpaceOnUse" color-interpolation-filters="sRGB">
<feFlood flood-opacity="0" result="BackgroundImageFix"/>
<feBlend mode="normal" in="SourceGraphic" in2="BackgroundImageFix" result="shape"/>
<feGaussianBlur stdDeviation="75" result="effect1_foregroundBlur_9_6"/>
</filter>
<filter id="filter1_f_9_6" x="99.5455" y="99.5455" width="160.909" height="160.909" filterUnits="userSpaceOnUse" color-interpolation-filters="sRGB">
<feFlood flood-opacity="0" result="BackgroundImageFix"/>
<feBlend mode="normal" in="SourceGraphic" in2="BackgroundImageFix" result="shape"/>
<feGaussianBlur stdDeviation="25.2273" result="effect1_foregroundBlur_9_6"/>
</filter>
<filter id="filter2_f_9_6" x="117.273" y="117.273" width="125.455" height="125.455" filterUnits="userSpaceOnUse" color-interpolation-filters="sRGB">
<feFlood flood-opacity="0" result="BackgroundImageFix"/>
<feBlend mode="normal" in="SourceGraphic" in2="BackgroundImageFix" result="shape"/>
<feGaussianBlur stdDeviation="16.3636" result="effect1_foregroundBlur_9_6"/>
</filter>
<filter id="filter3_f_9_6" x="138" y="138" width="84" height="84" filterUnits="userSpaceOnUse" color-interpolation-filters="sRGB">
<feFlood flood-opacity="0" result="BackgroundImageFix"/>
<feBlend mode="normal" in="SourceGraphic" in2="BackgroundImageFix" result="shape"/>
<feGaussianBlur stdDeviation="6" result="effect1_foregroundBlur_9_6"/>
</filter>
<filter id="filter4_ii_9_6" x="150" y="150" width="78" height="62.4" filterUnits="userSpaceOnUse" color-interpolation-filters="sRGB">
<feFlood flood-opacity="0" result="BackgroundImageFix"/>
<feBlend mode="normal" in="SourceGraphic" in2="BackgroundImageFix" result="shape"/>
<feColorMatrix in="SourceAlpha" type="matrix" values="0 0 0 0 0 0 0 0 0 0 0 0 0 0 0 0 0 0 127 0" result="hardAlpha"/>
<feOffset dy="2.4"/>
<feGaussianBlur stdDeviation="1.5"/>
<feComposite in2="hardAlpha" operator="arithmetic" k2="-1" k3="1"/>
<feColorMatrix type="matrix" values="0 0 0 0 1 0 0 0 0 1 0 0 0 0 1 0 0 0 1 0"/>
<feBlend mode="normal" in2="shape" result="effect1_innerShadow_9_6"/>
<feColorMatrix in="SourceAlpha" type="matrix" values="0 0 0 0 0 0 0 0 0 0 0 0 0 0 0 0 0 0 127 0" result="hardAlpha"/>
<feOffset dx="18" dy="2.4"/>
<feGaussianBlur stdDeviation="21.3"/>
<feComposite in2="hardAlpha" operator="arithmetic" k2="-1" k3="1"/>
<feColorMatrix type="matrix" values="0 0 0 0 1 0 0 0 0 1 0 0 0 0 1 0 0 0 0.44 0"/>
<feBlend mode="normal" in2="effect1_innerShadow_9_6" result="effect2_innerShadow_9_6"/>
</filter>
<linearGradient id="paint0_linear_9_6" x1="180" y1="150" x2="180" y2="210" gradientUnits="userSpaceOnUse">
<stop stop-color="#F9F7FD"/>
<stop offset="0.5" stop-color="#C575F9"/>
<stop offset="1" stop-color="#733AF8"/>
</linearGradient>
<linearGradient id="paint1_linear_9_6" x1="180" y1="150" x2="180" y2="210" gradientUnits="userSpaceOnUse">
<stop stop-color="#F9F7FD"/>
<stop offset="0.5" stop-color="#C575F9"/>
<stop offset="1" stop-color="#733AF8"/>
</linearGradient>
<linearGradient id="paint2_linear_9_6" x1="180" y1="150" x2="180" y2="210" gradientUnits="userSpaceOnUse">
<stop stop-color="#F9F7FD"/>
<stop offset="0.5" stop-color="#C575F9"/>
<stop offset="1" stop-color="#733AF8"/>
</linearGradient>
<linearGradient id="paint3_linear_9_6" x1="180" y1="150" x2="180" y2="210" gradientUnits="userSpaceOnUse">
<stop stop-color="#F9F7FD"/>
<stop offset="0.5" stop-color="#C575F9"/>
<stop offset="1" stop-color="#733AF8"/>
</linearGradient>
<linearGradient id="paint4_linear_9_6" x1="180" y1="150" x2="180" y2="210" gradientUnits="userSpaceOnUse">
<stop stop-color="#F9F7FD"/>
<stop offset="0.5" stop-color="#C575F9"/>
<stop offset="1" stop-color="#733AF8"/>
</linearGradient>
</defs>
</svg>
